<svg xmlns="http://www.w3.org/2000/svg" xmlns:xlink="http://www.w3.org/1999/xlink" width="1920" zoomAndPan="magnify" viewBox="0 0 1440 1439.999935" height="1920" preserveAspectRatio="xMidYMid meet" version="1.0"><path fill="#000000" d="M 805.953125 623.210938 C 807.023438 544.070312 812.726562 465.644531 840.167969 390.421875 C 859.773438 336.59375 888.644531 288.824219 936.761719 256.382812 C 1004.125 210.394531 1073.625 216.097656 1142.058594 254.242188 C 1205.859375 289.890625 1244.351562 347.644531 1272.867188 412.527344 C 1299.597656 473.84375 1310.648438 539.082031 1314.210938 605.746094 C 1320.628906 719.464844 1295.675781 828.195312 1262.886719 935.5 C 1256.113281 957.246094 1250.769531 979.703125 1242.925781 1001.09375 C 1235.085938 1021.769531 1226.53125 1026.761719 1204.433594 1022.484375 C 1168.792969 1015.351562 1133.503906 1004.660156 1097.863281 998.597656 C 1022.65625 985.765625 947.097656 974.714844 871.535156 964.019531 C 838.386719 959.382812 831.972656 953.324219 829.121094 920.527344 C 821.636719 832.117188 813.792969 744.0625 806.308594 655.652344 C 805.242188 644.601562 805.953125 633.90625 805.953125 623.210938 Z M 805.953125 623.210938 " fill-opacity="1" fill-rule="nonzero"/><path fill="#000000" d="M 492.300781 754.402344 C 437.414062 757.253906 382.167969 759.035156 327.277344 763.3125 C 285.21875 766.523438 243.164062 772.582031 201.105469 776.148438 C 170.453125 779 161.542969 772.582031 155.839844 741.925781 C 146.929688 693.085938 138.730469 643.890625 131.957031 594.691406 C 123.40625 530.878906 119.128906 466.355469 125.898438 402.1875 C 139.085938 277.414062 173.660156 161.554688 267.398438 71.007812 C 312.308594 27.871094 366.128906 2.558594 428.503906 1.492188 C 491.230469 0.421875 541.132812 28.582031 578.199219 78.847656 C 613.839844 126.617188 630.238281 181.875 637.007812 240.339844 C 650.554688 354.417969 633.089844 465.644531 609.207031 576.511719 C 598.515625 626.421875 587.464844 676.328125 576.0625 726.238281 C 570.359375 751.191406 566.082031 754.402344 540.0625 755.472656 C 524.023438 756.183594 507.984375 755.472656 491.945312 755.472656 C 492.65625 755.472656 492.300781 754.757812 492.300781 754.402344 Z M 492.300781 754.402344 " fill-opacity="1" fill-rule="nonzero"/><path fill="#000000" d="M 591.386719 1010.71875 C 590.675781 1062.765625 575.703125 1110.179688 543.269531 1151.535156 C 485.53125 1224.96875 382.878906 1229.25 320.148438 1160.089844 C 304.109375 1142.621094 290.210938 1122.65625 279.160156 1101.980469 C 242.804688 1033.179688 221.0625 959.027344 198.609375 884.878906 C 190.054688 856.714844 198.609375 845.308594 227.480469 842.8125 C 258.84375 839.960938 290.566406 839.960938 322.289062 837.820312 C 378.960938 833.898438 435.988281 828.550781 492.65625 824.988281 C 510.121094 823.917969 527.585938 826.054688 545.050781 827.125 C 555.03125 827.480469 559.664062 834.253906 561.449219 842.8125 C 571.070312 889.867188 581.050781 936.925781 590.316406 984.339844 C 591.742188 992.894531 591.03125 1001.808594 591.386719 1010.71875 Z M 591.386719 1010.71875 " fill-opacity="1" fill-rule="nonzero"/><path fill="#000000" d="M 796.6875 1152.960938 C 806.308594 1119.449219 819.140625 1086.652344 829.476562 1053.496094 C 834.109375 1038.167969 842.308594 1029.613281 858.703125 1032.109375 C 898.625 1038.523438 938.1875 1044.941406 978.105469 1051.714844 C 1038.339844 1062.054688 1098.933594 1072.390625 1159.167969 1083.441406 C 1193.027344 1089.503906 1200.871094 1101.980469 1186.257812 1134.777344 C 1163.089844 1186.824219 1138.851562 1238.160156 1111.765625 1288.425781 C 1095.726562 1318.015625 1076.121094 1346.890625 1053.667969 1371.84375 C 1009.46875 1420.683594 954.226562 1439.578125 889.710938 1417.121094 C 838.746094 1399.296875 809.875 1359.367188 794.191406 1310.171875 C 786.351562 1286.289062 788.84375 1179.695312 796.6875 1152.960938 Z M 796.6875 1152.960938 " fill-opacity="1" fill-rule="nonzero"/></svg>