<svg xmlns="http://www.w3.org/2000/svg" xmlns:xlink="http://www.w3.org/1999/xlink" width="1920" zoomAndPan="magnify" viewBox="0 0 1440 1439.999935" height="1920" preserveAspectRatio="xMidYMid meet" version="1.0"><path fill="#ffa51d" d="M 806.085938 623.210938 C 807.15625 544.070312 812.859375 465.644531 840.308594 390.421875 C 859.917969 336.59375 888.792969 288.824219 936.917969 256.382812 C 1004.296875 210.394531 1073.8125 216.097656 1142.257812 254.242188 C 1206.070312 289.890625 1244.574219 347.644531 1273.089844 412.527344 C 1299.828125 473.84375 1310.878906 539.082031 1314.445312 605.746094 C 1320.863281 719.464844 1295.90625 828.195312 1263.109375 935.5 C 1256.335938 957.246094 1250.988281 979.703125 1243.144531 1001.09375 C 1235.304688 1021.769531 1226.746094 1026.761719 1204.644531 1022.484375 C 1168.996094 1015.351562 1133.703125 1004.660156 1098.054688 998.597656 C 1022.835938 985.765625 947.257812 974.714844 871.683594 964.019531 C 838.527344 959.382812 832.109375 953.324219 829.257812 920.527344 C 821.773438 832.117188 813.929688 744.0625 806.445312 655.652344 C 805.375 644.601562 806.085938 633.90625 806.085938 623.210938 Z M 806.085938 623.210938 " fill-opacity="1" fill-rule="nonzero"/><path fill="#ffa51d" d="M 492.375 754.402344 C 437.472656 757.253906 382.21875 759.035156 327.320312 763.3125 C 285.253906 766.523438 243.1875 772.582031 201.121094 776.148438 C 170.460938 779 161.550781 772.582031 155.847656 741.925781 C 146.933594 693.085938 138.734375 643.890625 131.960938 594.691406 C 123.40625 530.878906 119.128906 466.355469 125.902344 402.1875 C 139.089844 277.414062 173.671875 161.554688 267.429688 71.007812 C 312.347656 27.871094 366.175781 2.558594 428.5625 1.492188 C 491.304688 0.421875 541.214844 28.582031 578.289062 78.847656 C 613.9375 126.617188 630.335938 181.875 637.109375 240.339844 C 650.65625 354.417969 633.1875 465.644531 609.304688 576.511719 C 598.609375 626.421875 587.558594 676.328125 576.148438 726.238281 C 570.445312 751.191406 566.167969 754.402344 540.144531 755.472656 C 524.101562 756.183594 508.058594 755.472656 492.019531 755.472656 C 492.730469 755.472656 492.375 754.757812 492.375 754.402344 Z M 492.375 754.402344 " fill-opacity="1" fill-rule="nonzero"/><path fill="#ffa51d" d="M 591.480469 1010.71875 C 590.765625 1062.765625 575.792969 1110.179688 543.351562 1151.535156 C 485.601562 1224.96875 382.929688 1229.25 320.1875 1160.089844 C 304.148438 1142.621094 290.242188 1122.65625 279.191406 1101.980469 C 242.828125 1033.179688 221.082031 959.027344 198.625 884.878906 C 190.070312 856.714844 198.625 845.308594 227.5 842.8125 C 258.871094 839.960938 290.601562 839.960938 322.328125 837.820312 C 379.011719 833.898438 436.046875 828.550781 492.730469 824.988281 C 510.199219 823.917969 527.667969 826.054688 545.136719 827.125 C 555.117188 827.480469 559.75 834.253906 561.535156 842.8125 C 571.160156 889.867188 581.140625 936.925781 590.410156 984.339844 C 591.835938 992.894531 591.121094 1001.808594 591.480469 1010.71875 Z M 591.480469 1010.71875 " fill-opacity="1" fill-rule="nonzero"/><path fill="#ffa51d" d="M 796.820312 1152.960938 C 806.445312 1119.449219 819.277344 1086.652344 829.617188 1053.496094 C 834.25 1038.167969 842.449219 1029.613281 858.847656 1032.109375 C 898.773438 1038.523438 938.347656 1044.941406 978.273438 1051.714844 C 1038.519531 1062.054688 1099.125 1072.390625 1159.371094 1083.441406 C 1193.238281 1089.503906 1201.082031 1101.980469 1186.464844 1134.777344 C 1163.292969 1186.824219 1139.050781 1238.160156 1111.957031 1288.425781 C 1095.914062 1318.015625 1076.308594 1346.890625 1053.847656 1371.84375 C 1009.644531 1420.683594 954.386719 1439.578125 889.863281 1417.121094 C 838.882812 1399.296875 810.007812 1359.367188 794.324219 1310.171875 C 786.480469 1286.289062 788.976562 1179.695312 796.820312 1152.960938 Z M 796.820312 1152.960938 " fill-opacity="1" fill-rule="nonzero"/></svg>