<svg xmlns="http://www.w3.org/2000/svg" xmlns:xlink="http://www.w3.org/1999/xlink" width="1920" zoomAndPan="magnify" viewBox="0 0 1440 1439.999935" height="1920" preserveAspectRatio="xMidYMid meet" version="1.0"><path fill="#ff5757" d="M 225 720 L 90 900 L 189 900 C 225 1125 400.5 1300.5 621 1341 L 720 1440 L 819 1341 C 1039.5 1300.5 1215 1125 1251 900 L 1350 900 L 1215 720 L 1080 900 L 1188 900 C 1107 1035 972 1134 810 1161 L 810 540 L 1035 540 L 1035 450 L 810 450 L 810 337.5 C 864 306 900 247.5 900 180 C 900 81 819 0 720 0 C 621 0 540 81 540 180 C 540 247.5 576 306 630 337.5 L 630 450 L 405 450 L 405 540 L 630 540 L 630 1161 C 468 1134 333 1035 252 900 L 360 900 Z M 720 90 C 769.5 90 810 130.5 810 180 C 810 229.5 769.5 270 720 270 C 670.5 270 630 229.5 630 180 C 630 130.5 670.5 90 720 90 Z M 720 90 " fill-opacity="1" fill-rule="nonzero"/></svg>