<svg xmlns="http://www.w3.org/2000/svg" xmlns:xlink="http://www.w3.org/1999/xlink" width="1920" zoomAndPan="magnify" viewBox="0 0 1440 1439.999935" height="1920" preserveAspectRatio="xMidYMid meet" version="1.0"><path fill="#24a9ff" d="M 720 120 C 487.800781 120 300 307.800781 300 540 C 300 644.398438 330 742.199219 384.601562 830.398438 C 441.601562 922.800781 516.601562 1002 574.199219 1094.398438 C 602.398438 1139.398438 622.800781 1181.398438 644.398438 1230 C 660 1263 672.601562 1320 720 1320 C 767.398438 1320 780 1263 795 1230 C 817.199219 1181.398438 837 1139.398438 865.199219 1094.398438 C 922.800781 1002.601562 997.800781 923.398438 1054.800781 830.398438 C 1110 742.199219 1140 644.398438 1140 540 C 1140 307.800781 952.199219 120 720 120 Z M 720 705 C 637.199219 705 570 637.800781 570 555 C 570 472.199219 637.199219 405 720 405 C 802.800781 405 870 472.199219 870 555 C 870 637.800781 802.800781 705 720 705 Z M 720 705 " fill-opacity="1" fill-rule="nonzero"/></svg>