<svg xmlns="http://www.w3.org/2000/svg" xmlns:xlink="http://www.w3.org/1999/xlink" width="1920" zoomAndPan="magnify" viewBox="0 0 1440 1439.999935" height="1920" preserveAspectRatio="xMidYMid meet" version="1.0"><path fill="#ffa51d" d="M 960 540 L 960 240 L 1020 240 C 1053 240 1080 213 1080 180 C 1080 147 1053 120 1020 120 L 420 120 C 387 120 360 147 360 180 C 360 213 387 240 420 240 L 480 240 L 480 540 C 480 639.601562 399.601562 720 300 720 L 300 840 L 658.199219 840 L 658.199219 1260 L 718.199219 1320 L 778.199219 1260 L 778.199219 840 L 1140 840 L 1140 720 C 1040.398438 720 960 639.601562 960 540 Z M 960 540 " fill-opacity="1" fill-rule="evenodd"/></svg>