<svg width="24" height="24" viewBox="0 0 24 24" fill="none" xmlns="http://www.w3.org/2000/svg">
<path d="M6.75 22.275C6 22.275 5.35417 22.0208 4.8125 21.5125C4.27083 21.0042 4 20.375 4 19.625V5.675C4 5.04167 4.19583 4.475 4.5875 3.975C4.97917 3.475 5.49167 3.15833 6.125 3.025L13.625 1.55C14.2417 1.41667 14.7917 1.55 15.275 1.95C15.7583 2.35 16 2.86667 16 3.5V15.425C16 15.9083 15.85 16.3375 15.55 16.7125C15.25 17.0875 14.8667 17.3167 14.4 17.4L6.525 18.975C6.375 19.0083 6.25 19.0875 6.15 19.2125C6.05 19.3375 6 19.475 6 19.625C6 19.8083 6.075 19.9625 6.225 20.0875C6.375 20.2125 6.55 20.275 6.75 20.275H18V5.275C18 4.99167 18.0958 4.75417 18.2875 4.5625C18.4792 4.37083 18.7167 4.275 19 4.275C19.2833 4.275 19.5208 4.37083 19.7125 4.5625C19.9042 4.75417 20 4.99167 20 5.275V20.275C20 20.825 19.8042 21.2958 19.4125 21.6875C19.0208 22.0792 18.55 22.275 18 22.275H6.75ZM8.2 16.625C8.43333 16.575 8.625 16.4583 8.775 16.275C8.925 16.0917 9 15.8833 9 15.65V5.725C9 5.40833 8.87917 5.15 8.6375 4.95C8.39583 4.75 8.11667 4.68333 7.8 4.75C7.56667 4.8 7.375 4.91667 7.225 5.1C7.075 5.28333 7 5.49167 7 5.725V15.65C7 15.9667 7.12083 16.225 7.3625 16.425C7.60417 16.625 7.88333 16.6917 8.2 16.625Z" fill="#6B7280"/>
</svg>
