<svg width="24" height="24" viewBox="0 0 24 24" fill="none" xmlns="http://www.w3.org/2000/svg">
<path d="M4.50428 13.23L4.4998 13.3891C4.46943 14.4672 4.75574 15.4277 5.35928 16.2878C5.92136 17.0888 6.73451 17.5 7.875 17.5C8.6425 17.5 9.25427 17.2365 9.74773 16.7086C10.2438 16.1771 10.5 15.5115 10.5 14.675C10.5 14.1982 10.3994 13.7399 10.1955 13.2955C9.9658 12.7953 9.79138 12.4437 9.66979 12.2299L9.47417 11.912L9.34235 11.6978L9.43576 11.4643C9.63011 10.9784 9.85967 10.3314 10.1247 9.5198C10.3731 8.75908 10.5 7.92047 10.5 7C10.5 5.61115 10.1308 4.33242 9.38881 3.15329L9.38877 3.15323C8.68353 2.03209 7.73483 1.5 6.5 1.5C5.37456 1.5 4.44206 1.9821 3.67609 3.01054L4.50428 13.23ZM4.50428 13.23L4.41603 13.0976M4.50428 13.23L4.41603 13.0976M4.41603 13.0976L3.96806 12.4257C3.81217 12.1836 3.52507 11.5847 3.09822 10.5796L3.09811 10.5793M4.41603 13.0976L3.09811 10.5793M3.09811 10.5793C2.70732 9.66051 2.5 8.4742 2.5 7M3.09811 10.5793L2.5 7M18.9908 17.1581L18.6519 17.0903L15.9019 16.5403L15.6347 16.4868L15.5348 16.2333C15.3143 15.6735 15.0907 15.0524 14.8638 14.3704C14.6194 13.6387 14.5 12.8472 14.5 12C14.5 10.9202 14.7485 9.92002 15.2499 9.00904L18.9908 17.1581ZM18.9908 17.1581L19.174 16.865M18.9908 17.1581L19.174 16.865M19.174 16.865C19.4517 16.4207 19.7364 15.7823 20.0318 14.9713L19.174 16.865ZM2.5 7C2.5 5.36824 2.90264 4.04975 3.67601 3.01065L2.5 7ZM4.826 11.865L5.00917 12.1581L5.34806 12.0903L8.09806 11.5403L8.36195 11.4875L8.46323 11.2382C8.68501 10.6923 8.90982 10.0731 9.13785 9.38158L9.13799 9.38117C9.38097 8.64212 9.5 7.84716 9.5 7C9.5 5.92017 9.25146 4.91992 8.75003 4.00891C8.23172 3.06598 7.4831 2.5 6.5 2.5C5.5169 2.5 4.76828 3.06598 4.24997 4.00891C3.74854 4.91992 3.5 5.92017 3.5 7C3.5 8.09531 3.65219 9.0835 3.9676 9.95647C4.26287 10.7761 4.54774 11.4198 4.826 11.865ZM8.83412 12.7519L8.65381 12.4364L8.29802 12.5105L5.89802 13.0105L5.5 13.0934V13.5C5.5 14.2416 5.66313 14.9146 6.00616 15.502C6.40223 16.1815 7.06282 16.5 7.875 16.5C8.33157 16.5 8.73072 16.3248 9.0414 15.9902C9.36778 15.6387 9.5 15.1778 9.5 14.675C9.5 14.3115 9.41418 13.9508 9.25691 13.5969C9.11817 13.2848 8.97739 13.0026 8.83412 12.7519ZM14.5258 16.912L14.6577 16.6978L14.5642 16.4643C14.3699 15.9784 14.1403 15.3314 13.8753 14.5198C13.6269 13.7591 13.5 12.9205 13.5 12C13.5 10.6111 13.8692 9.33242 14.6112 8.15329L14.6112 8.15323C15.3165 7.03209 16.2652 6.5 17.5 6.5C18.6255 6.5 19.558 6.98213 20.324 8.01065C21.0974 9.04975 21.5 10.3682 21.5 12C21.5 13.4745 21.2929 14.6557 20.9035 15.565C20.4745 16.5654 20.1863 17.1621 20.0302 17.4034L20.0294 17.4046L19.5794 18.1046L19.4979 18.2314L19.5 18.382C19.5153 19.4639 19.2242 20.4281 18.627 21.2903C18.0731 22.089 17.2654 22.5 16.125 22.5C15.3576 22.5 14.7459 22.2365 14.2525 21.7088C13.7562 21.1773 13.5 20.5116 13.5 19.675C13.5 19.1982 13.6006 18.7399 13.8045 18.2955C14.0342 17.7953 14.2086 17.4437 14.3302 17.2299L14.5258 16.912ZM18.5 18.5V18.0934L18.102 18.0105L15.702 17.5105L15.3462 17.4364L15.1659 17.7519C15.0226 18.0026 14.8818 18.2848 14.7431 18.5969C14.5858 18.9508 14.5 19.3115 14.5 19.675C14.5 20.1212 14.642 20.5304 14.9134 20.8889L14.9135 20.889C15.2127 21.2837 15.6286 21.5 16.125 21.5C16.9371 21.5 17.5977 21.1816 17.9938 20.5021C18.3368 19.9147 18.5 19.2417 18.5 18.5ZM20.0318 14.9711C20.3481 14.1043 20.5 13.1108 20.5 12C20.5 10.9203 20.2515 9.92012 19.7502 9.00918C19.2319 8.06609 18.4832 7.5 17.5 7.5C16.5169 7.5 15.7683 8.06598 15.25 9.00891L20.0318 14.9711Z" stroke="black"/>
</svg>
